<?xml version="1.0" encoding="UTF-8"?>
<svg width="63px" height="14px" viewBox="0 0 63 14" version="1.1" xmlns="http://www.w3.org/2000/svg" xmlns:xlink="http://www.w3.org/1999/xlink">
    <!-- Generator: Sketch 53.2 (72643) - https://sketchapp.com -->
    <title>Booklet</title>
    <desc>Created with Sketch.</desc>
    <g id="Symbols" stroke="none" stroke-width="1" fill="none" fill-rule="evenodd">
        <g id="GNB" transform="translate(-61.000000, -23.000000)" fill="#FFFFFF" fill-rule="nonzero">
            <g id="Booklet">
                <path d="M61,23.8738622 L65.4421326,23.8738622 C65.927614,23.8738622 66.4130882,23.928478 66.8985696,24.0377113 C67.384051,24.1469446 67.8179435,24.3289974 68.2002601,24.5838752 C68.5825767,24.8387529 68.8920664,25.1725164 69.1287386,25.5851756 C69.3654108,25.9978347 69.4837451,26.513651 69.4837451,27.1326398 C69.4837451,27.8487249 69.2774186,28.4494991 68.8647594,28.9349805 C68.4521002,29.4204619 67.9059418,29.7542254 67.2262679,29.9362809 L67.2262679,29.9726918 C67.6389271,30.0212399 68.0212379,30.1274374 68.373212,30.2912874 C68.725186,30.4551374 69.0286073,30.6705665 69.283485,30.9375813 C69.5383628,31.204596 69.7355866,31.5201542 69.8751625,31.8842653 C70.0147385,32.2483763 70.0845254,32.6549609 70.0845254,33.1040312 C70.0845254,33.72302 69.9570884,34.26311 69.7022107,34.7243173 C69.4473329,35.1855246 69.1014326,35.5648013 68.6644993,35.8621586 C68.2275661,36.159516 67.714784,36.3840478 67.1261378,36.5357607 C66.5374916,36.6874737 65.9094095,36.763329 65.2418726,36.763329 L61,36.763329 L61,23.8738622 Z M62.8023407,29.3172952 L65.1508453,29.3172952 C65.4906822,29.3172952 65.8153431,29.2778504 66.1248375,29.1989597 C66.4343318,29.120069 66.7043768,28.9987004 66.9349805,28.8348505 C67.1655842,28.6710005 67.347637,28.464674 67.4811443,28.2158648 C67.6146517,27.9670555 67.6814044,27.6666684 67.6814044,27.3146944 C67.6814044,26.6228834 67.4265305,26.1283066 66.916775,25.8309493 C66.4070196,25.5335919 65.7212874,25.3849155 64.8595579,25.3849155 L62.8023407,25.3849155 L62.8023407,29.3172952 Z M62.8023407,35.2340702 L65.0598179,35.2340702 C65.436066,35.2340702 65.8153427,35.2006939 66.1976593,35.1339402 C66.5799759,35.0671865 66.9258762,34.9488522 67.2353706,34.7789337 C67.544865,34.6090152 67.7936705,34.3814492 67.9817945,34.0962289 C68.1699186,33.8110085 68.2639792,33.4499372 68.2639792,33.0130039 C68.2639792,32.2483707 68.0030369,31.6961439 67.4811443,31.3563069 C66.9592518,31.0164699 66.2067669,30.846554 65.2236671,30.846554 L62.8023407,30.846554 L62.8023407,35.2340702 Z M81.3355007,32.4304291 C81.3355007,33.0979661 81.2171663,33.7108771 80.9804941,34.2691808 C80.743822,34.8274844 80.4161269,35.3099243 79.9973992,35.716515 C79.5786715,36.1231056 79.0840947,36.4386638 78.5136541,36.663199 C77.9432134,36.8877341 77.3303024,37 76.6749025,37 C76.0195026,37 75.4065915,36.8877341 74.8361508,36.663199 C74.2657102,36.4386638 73.7741676,36.1231056 73.3615085,35.716515 C72.9488493,35.3099243 72.6241884,34.8274844 72.3875163,34.2691808 C72.1508441,33.7108771 72.0325098,33.0979661 72.0325098,32.4304291 C72.0325098,31.7628922 72.1508441,31.1530153 72.3875163,30.6007802 C72.6241884,30.0485451 72.9488493,29.5721737 73.3615085,29.1716515 C73.7741676,28.7711293 74.2657102,28.4586054 74.8361508,28.2340702 C75.4065915,28.0095351 76.0195026,27.8972692 76.6749025,27.8972692 C77.3303024,27.8972692 77.9432134,28.0095351 78.5136541,28.2340702 C79.0840947,28.4586054 79.5786715,28.7711293 79.9973992,29.1716515 C80.4161269,29.5721737 80.743822,30.0485451 80.9804941,30.6007802 C81.2171663,31.1530153 81.3355007,31.7628922 81.3355007,32.4304291 Z M79.5513654,32.4304291 C79.5513654,32.0177699 79.4876469,31.6233222 79.3602081,31.2470741 C79.2327692,30.870826 79.0476822,30.5400968 78.8049415,30.2548765 C78.5622008,29.9696561 78.2618137,29.7420901 77.9037711,29.5721717 C77.5457286,29.4022532 77.1361098,29.3172952 76.6749025,29.3172952 C76.2136951,29.3172952 75.8040763,29.4022532 75.4460338,29.5721717 C75.0879913,29.7420901 74.7876042,29.9696561 74.5448635,30.2548765 C74.3021228,30.5400968 74.1170357,30.870826 73.9895969,31.2470741 C73.862158,31.6233222 73.7984395,32.0177699 73.7984395,32.4304291 C73.7984395,32.8430883 73.862158,33.237536 73.9895969,33.6137841 C74.1170357,33.9900322 74.3021228,34.3237957 74.5448635,34.6150845 C74.7876042,34.9063734 75.0879913,35.1369736 75.4460338,35.3068921 C75.8040763,35.4768106 76.2136951,35.5617685 76.6749025,35.5617685 C77.1361098,35.5617685 77.5457286,35.4768106 77.9037711,35.3068921 C78.2618137,35.1369736 78.5622008,34.9063734 78.8049415,34.6150845 C79.0476822,34.3237957 79.2327692,33.9900322 79.3602081,33.6137841 C79.4876469,33.237536 79.5513654,32.8430883 79.5513654,32.4304291 Z M92.4408322,32.4304291 C92.4408322,33.0979661 92.3224979,33.7108771 92.0858257,34.2691808 C91.8491536,34.8274844 91.5214585,35.3099243 91.1027308,35.716515 C90.6840031,36.1231056 90.1894263,36.4386638 89.6189857,36.663199 C89.048545,36.8877341 88.435634,37 87.7802341,37 C87.1248342,37 86.5119231,36.8877341 85.9414824,36.663199 C85.3710418,36.4386638 84.8794992,36.1231056 84.4668401,35.716515 C84.0541809,35.3099243 83.72952,34.8274844 83.4928479,34.2691808 C83.2561757,33.7108771 83.1378414,33.0979661 83.1378414,32.4304291 C83.1378414,31.7628922 83.2561757,31.1530153 83.4928479,30.6007802 C83.72952,30.0485451 84.0541809,29.5721737 84.4668401,29.1716515 C84.8794992,28.7711293 85.3710418,28.4586054 85.9414824,28.2340702 C86.5119231,28.0095351 87.1248342,27.8972692 87.7802341,27.8972692 C88.435634,27.8972692 89.048545,28.0095351 89.6189857,28.2340702 C90.1894263,28.4586054 90.6840031,28.7711293 91.1027308,29.1716515 C91.5214585,29.5721737 91.8491536,30.0485451 92.0858257,30.6007802 C92.3224979,31.1530153 92.4408322,31.7628922 92.4408322,32.4304291 Z M90.656697,32.4304291 C90.656697,32.0177699 90.5929785,31.6233222 90.4655397,31.2470741 C90.3381008,30.870826 90.1530138,30.5400968 89.9102731,30.2548765 C89.6675324,29.9696561 89.3671453,29.7420901 89.0091027,29.5721717 C88.6510602,29.4022532 88.2414414,29.3172952 87.7802341,29.3172952 C87.3190267,29.3172952 86.9094079,29.4022532 86.5513654,29.5721717 C86.1933229,29.7420901 85.8929358,29.9696561 85.6501951,30.2548765 C85.4074544,30.5400968 85.2223673,30.870826 85.0949285,31.2470741 C84.9674896,31.6233222 84.9037711,32.0177699 84.9037711,32.4304291 C84.9037711,32.8430883 84.9674896,33.237536 85.0949285,33.6137841 C85.2223673,33.9900322 85.4074544,34.3237957 85.6501951,34.6150845 C85.8929358,34.9063734 86.1933229,35.1369736 86.5513654,35.3068921 C86.9094079,35.4768106 87.3190267,35.5617685 87.7802341,35.5617685 C88.2414414,35.5617685 88.6510602,35.4768106 89.0091027,35.3068921 C89.3671453,35.1369736 89.6675324,34.9063734 89.9102731,34.6150845 C90.1530138,34.3237957 90.3381008,33.9900322 90.4655397,33.6137841 C90.5929785,33.237536 90.656697,32.8430883 90.656697,32.4304291 Z M96.5552666,31.8842653 L96.609883,31.8842653 L100.23277,28.1339402 L102.526658,28.1339402 L98.4850455,32.0481144 L102.872562,36.763329 L100.505852,36.763329 L96.609883,32.2847854 L96.5552666,32.2847854 L96.5552666,36.763329 L94.8439532,36.763329 L94.8439532,23 L96.5552666,23 L96.5552666,31.8842653 Z M106.149545,36.763329 L104.438231,36.763329 L104.438231,23 L106.149545,23 L106.149545,36.763329 Z M115.452536,31.6840052 C115.440399,31.3441682 115.382749,31.0255758 115.279584,30.7282185 C115.176419,30.4308611 115.024708,30.172953 114.824447,29.9544863 C114.624186,29.7360197 114.375381,29.5630696 114.078023,29.4356307 C113.780666,29.3081918 113.431732,29.2444733 113.031209,29.2444733 C112.667098,29.2444733 112.324232,29.3081918 112.002601,29.4356307 C111.680969,29.5630696 111.401822,29.7360197 111.16515,29.9544863 C110.928477,30.172953 110.734288,30.4308611 110.582575,30.7282185 C110.430862,31.0255758 110.34287,31.3441682 110.318596,31.6840052 L115.452536,31.6840052 Z M117.182055,32.3758127 L117.182055,32.6671001 C117.182055,32.7641964 117.175986,32.8612912 117.163849,32.9583875 L110.318596,32.9583875 C110.330733,33.3224986 110.412656,33.6653647 110.564369,33.9869961 C110.716082,34.3086275 110.919375,34.5877751 111.174252,34.8244473 C111.42913,35.0611195 111.723449,35.2462065 112.057217,35.3797139 C112.390986,35.5132213 112.745989,35.579974 113.122237,35.579974 C113.704814,35.579974 114.208494,35.452537 114.63329,35.1976593 C115.058086,34.9427816 115.39185,34.6332918 115.63459,34.2691808 L116.836151,35.2340702 C116.374944,35.840922 115.831819,36.2869513 115.206762,36.5721717 C114.581705,36.857392 113.88687,37 113.122237,37 C112.466837,37 111.859994,36.8907683 111.301691,36.6723017 C110.743387,36.4538351 110.263981,36.1473795 109.863459,35.7529259 C109.462937,35.3584722 109.147379,34.8821008 108.916775,34.3237971 C108.686171,33.7654935 108.570871,33.146514 108.570871,32.4668401 C108.570871,31.7993031 108.683137,31.1833578 108.907672,30.6189857 C109.132207,30.0546136 109.444731,29.5721737 109.845254,29.1716515 C110.245776,28.7711293 110.719113,28.4586054 111.26528,28.2340702 C111.811446,28.0095351 112.400084,27.8972692 113.031209,27.8972692 C113.662335,27.8972692 114.235801,28.0004324 114.751625,28.206762 C115.267449,28.4130916 115.704376,28.7104445 116.062419,29.0988296 C116.420461,29.4872148 116.696575,29.9575178 116.890767,30.5097529 C117.08496,31.061988 117.182055,31.6840017 117.182055,32.3758127 Z M123.790637,29.5357607 L121.496749,29.5357607 L121.496749,34.0325098 C121.496749,34.5544023 121.593844,34.9276105 121.788036,35.1521456 C121.982229,35.3766808 122.291719,35.4889467 122.716515,35.4889467 C122.874296,35.4889467 123.044212,35.4707414 123.226268,35.4343303 C123.408323,35.3979192 123.572171,35.3433034 123.717815,35.2704811 L123.772432,36.6723017 C123.566102,36.7451239 123.338536,36.802774 123.089727,36.8452536 C122.840918,36.8877332 122.58301,36.9089727 122.315995,36.9089727 C121.502813,36.9089727 120.8808,36.6844409 120.449935,36.2353706 C120.01907,35.7863003 119.803641,35.112705 119.803641,34.2145644 L119.803641,29.5357607 L118.146944,29.5357607 L118.146944,28.1339402 L119.803641,28.1339402 L119.803641,25.6579974 L121.496749,25.6579974 L121.496749,28.1339402 L123.790637,28.1339402 L123.790637,29.5357607 Z"></path>
            </g>
        </g>
    </g>
</svg>