<svg xmlns="http://www.w3.org/2000/svg" width="16" height="16" viewBox="0 0 16 16">
    <path fill="#7B868C" fill-rule="evenodd" d="M14.545 2.364C13.738 2.109 12.851 2 12 2c-1.418 0-2.945.29-4 1.09C6.945 2.29 5.418 2 4 2c-1.418 0-2.945.29-4 1.09v10.655c0 .182.182.364.364.364.072 0 .109-.036.181-.036.982-.473 2.4-.8 3.455-.8 1.418 0 2.945.29 4 1.09.982-.618 2.764-1.09 4-1.09 1.2 0 2.436.218 3.455.763.072.037.109.037.181.037a.391.391 0 0 0 .364-.364V3.091c-.436-.327-.91-.546-1.455-.727zm0 9.818c-.8-.255-1.672-.364-2.545-.364-1.236 0-3.018.473-4 1.091V4.545c.982-.618 2.764-1.09 4-1.09.873 0 1.745.109 2.545.363v8.364z"/>
</svg>
