<svg xmlns="http://www.w3.org/2000/svg" width="16" height="16" viewBox="0 0 16 16">
    <path fill="#7B868C" fill-rule="nonzero" d="M10.925 2A3.9 3.9 0 0 0 8 3.355 3.9 3.9 0 0 0 5.075 2 3.536 3.536 0 0 0 1.5 5.575c0 2.454 2.21 4.459 5.558 7.498l.942.855.943-.855C12.29 10.034 14.5 8.029 14.5 5.575A3.536 3.536 0 0 0 10.925 2zM8.068 12.11L8 12.174l-.068-.062C4.84 9.306 2.8 7.453 2.8 5.575c0-1.297.978-2.275 2.275-2.275 1.001 0 1.976.647 2.317 1.534h1.212C8.95 3.947 9.925 3.3 10.925 3.3c1.297 0 2.275.978 2.275 2.275 0 1.878-2.041 3.731-5.132 6.536z"/>
</svg>
