<svg xmlns="http://www.w3.org/2000/svg" width="20" height="24" viewBox="0 0 20 24">
    <g fill="none" fill-rule="nonzero">
        <path fill="#000" d="M9.123 10.856c.267-.194.4-.494.4-.9a.833.833 0 0 0-.43-.76 2.24 2.24 0 0 0-1.142-.253h-1.49v2.205h1.622c.369.016.733-.087 1.04-.292zm-2.008-.357v-.901h.841c.28-.015.558.041.81.164a.183.183 0 0 1 .108.196c0 .274-.094.34-.134.37a1.115 1.115 0 0 1-.657.167l-.968.004zM9.199 15.267a2.042 2.042 0 0 0-.595-.19 3.69 3.69 0 0 0-.596-.05H6.461v2.433h1.8c.408.018.812-.093 1.153-.317.297-.212.464-.561.443-.925a.883.883 0 0 0-.19-.583 1.462 1.462 0 0 0-.468-.368zm-.166 1.344c-.231.142-.5.21-.772.194H7.115V15.68h.892c.165.001.33.016.492.043.14.022.278.065.406.128.1.048.19.117.262.202a.26.26 0 0 1 .038.164c-.003.238-.084.33-.172.393z"/>
        <path fill="#FFF" d="M9.123 10.856c-.307.205-.671.308-1.04.292H6.461V8.943h1.49c.396-.018.79.07 1.142.253a.833.833 0 0 1 .43.76c0 .406-.133.706-.4.9zm.291 6.287a1.938 1.938 0 0 1-1.153.317h-1.8v-2.434h1.547c.2.001.399.018.596.051.207.033.407.096.595.19.18.089.34.214.469.368.13.165.198.372.19.583.02.364-.147.713-.444.925zm10.531-3.133c0 1.214-.262 2.271-.777 3.138-.167.28-.355.545-.564.795l-.02.021a5.99 5.99 0 0 1-.357.393L15.6 21.236a6.138 6.138 0 0 1-1.123.914 8.05 8.05 0 0 1-2.662 1.064c-.935.197-1.889.296-2.845.296H0V2.943L2.69 0h8.215a19 19 0 0 1 2.493.177c.92.12 1.817.38 2.657.775a5.76 5.76 0 0 1 2.222 1.861c.618.858.931 1.952.931 3.262 0 1.255-.334 2.326-.994 3.182a5.314 5.314 0 0 1-.399.463c.266.204.514.43.742.675.432.468.775 1.01 1.013 1.6.255.641.382 1.325.375 2.015zm-4.599 5.415c.397-.667.595-1.492.593-2.473a3.912 3.912 0 0 0-1.039-2.725 4.501 4.501 0 0 0-1.09-.862 4.829 4.829 0 0 0-1.237-.492v-.077a4.286 4.286 0 0 0 1.914-1.394c.48-.623.721-1.416.721-2.38.001-1.032-.227-1.866-.684-2.5a4.46 4.46 0 0 0-1.72-1.446 7.632 7.632 0 0 0-2.27-.658 17.573 17.573 0 0 0-2.32-.166H1.31V22.2h7.664a12.38 12.38 0 0 0 2.574-.265c.789-.16 1.543-.461 2.226-.889.09-.058.176-.115.26-.177l.048-.037c.07-.052.138-.106.205-.162l.034-.028a5.362 5.362 0 0 0 .224-.205c.31-.3.58-.64.801-1.012z"/>
    </g>
</svg>
