<?xml version="1.0" encoding="UTF-8"?>
<svg width="24px" height="25px" viewBox="0 0 24 25" version="1.1" xmlns="http://www.w3.org/2000/svg" xmlns:xlink="http://www.w3.org/1999/xlink">
    <!-- Generator: Sketch 53.2 (72643) - https://sketchapp.com -->
    <title>Notification</title>
    <desc>Created with Sketch.</desc>
    <g id="Symbols" stroke="none" stroke-width="1" fill="none" fill-rule="evenodd">
        <g id="GNB" transform="translate(-287.000000, -17.000000)" fill="#FFFFFF">
            <g id="icon/notification">
                <g transform="translate(287.000000, 18.000000)">
                    <path d="M12,22 C13.105,22 14,21.1049995 14,20 L10,20 C10,21.1049995 10.895,22 12,22 Z M18.5,16 L18.5,10.5 C18.5,7.425 16.365,4.86 13.5,4.18 L13.5,3.5 C13.5,2.67 12.83,2 12,2 C11.17,2 10.5,2.67 10.5,3.5 L10.5,4.18 C7.635,4.86 5.5,7.425 5.5,10.5 L5.5,16 L3.5,18 L3.5,19 L20.5,19 L20.5,18 L18.5,16 Z M16.5,17 L7.5,17 L7.5,10.5 C7.5,8.015 9.515,6 12,6 C14.485,6 16.5,8.015 16.5,10.5 L16.5,17 Z" id="Fill-1"></path>
                </g>
            </g>
        </g>
    </g>
</svg>